<svg width="102" height="102" viewBox="0 0 102 102" fill="none" xmlns="http://www.w3.org/2000/svg">
<g filter="url(#filter0_d_2843_27)">
<g filter="url(#filter1_i_2843_27)">
<circle cx="51" cy="51" r="50" fill="#FAE272"/>
</g>
<g filter="url(#filter2_f_2843_27)">
<path d="M83.4175 83.4176C57.5675 101.016 43.3712 100.984 18.5823 83.4176C43.7694 95.4119 57.964 95.0943 83.4175 83.4176Z" fill="url(#paint0_linear_2843_27)"/>
</g>
<g filter="url(#filter3_i_2843_27)">
<ellipse cx="50.4506" cy="48.8022" rx="41.7582" ry="41.2088" fill="url(#paint1_linear_2843_27)"/>
<g filter="url(#filter4_f_2843_27)">
<path d="M19.6814 26.2747C43.7788 8.69231 57.0127 8.72366 80.121 26.2747C56.6415 14.2911 43.4092 14.6085 19.6814 26.2747Z" fill="url(#paint2_linear_2843_27)"/>
</g>
</g>
<g filter="url(#filter5_i_2843_27)">
<path d="M38.271 70.4556C42.2044 72.4182 44.6987 73.5275 52.3736 73.5275C62.4468 73.5275 68.4908 69.4316 73.5274 63.2877L61.4395 59.2418L57.6924 61.383C53.0726 64.0229 47.2661 63.3053 43.4279 59.6203L40.2857 56.6034H57.4102V52.6484H40.2857V49.9011H57.4102V45.809L40.2857 45.8801L42.5093 43.3792C46.6791 38.6896 53.758 38.0046 58.7496 41.8077L61.4395 43.8572L73.5274 39.7363C66.5919 31.3484 62.688 29.0049 52.3736 28.4725C44.6987 28.4725 42.2044 29.5382 38.271 31.5445C33.967 33.967 30.6703 39.7363 29.2051 45.8801L25.1758 45.809V49.9011H29.2051V52.6484H25.1758V56.6034H29.2051C30.1208 66.3846 38.271 70.4556 38.271 70.4556Z" fill="#FD981C"/>
</g>
</g>
<defs>
<filter id="filter0_d_2843_27" x="0" y="0" width="102" height="102" filterUnits="userSpaceOnUse" color-interpolation-filters="sRGB">
<feFlood flood-opacity="0" result="BackgroundImageFix"/>
<feColorMatrix in="SourceAlpha" type="matrix" values="0 0 0 0 0 0 0 0 0 0 0 0 0 0 0 0 0 0 127 0" result="hardAlpha"/>
<feOffset/>
<feGaussianBlur stdDeviation="0.5"/>
<feComposite in2="hardAlpha" operator="out"/>
<feColorMatrix type="matrix" values="0 0 0 0 0.956863 0 0 0 0 0.47451 0 0 0 0 0.0470588 0 0 0 1 0"/>
<feBlend mode="normal" in2="BackgroundImageFix" result="effect1_dropShadow_2843_27"/>
<feBlend mode="normal" in="SourceGraphic" in2="effect1_dropShadow_2843_27" result="shape"/>
</filter>
<filter id="filter1_i_2843_27" x="1" y="1" width="100" height="100" filterUnits="userSpaceOnUse" color-interpolation-filters="sRGB">
<feFlood flood-opacity="0" result="BackgroundImageFix"/>
<feBlend mode="normal" in="SourceGraphic" in2="BackgroundImageFix" result="shape"/>
<feColorMatrix in="SourceAlpha" type="matrix" values="0 0 0 0 0 0 0 0 0 0 0 0 0 0 0 0 0 0 127 0" result="hardAlpha"/>
<feOffset dy="-3"/>
<feComposite in2="hardAlpha" operator="arithmetic" k2="-1" k3="1"/>
<feColorMatrix type="matrix" values="0 0 0 0 0.996078 0 0 0 0 0.466667 0 0 0 0 0.00784314 0 0 0 1 0"/>
<feBlend mode="normal" in2="shape" result="effect1_innerShadow_2843_27"/>
</filter>
<filter id="filter2_f_2843_27" x="18.0823" y="82.9176" width="65.8352" height="14.1868" filterUnits="userSpaceOnUse" color-interpolation-filters="sRGB">
<feFlood flood-opacity="0" result="BackgroundImageFix"/>
<feBlend mode="normal" in="SourceGraphic" in2="BackgroundImageFix" result="shape"/>
<feGaussianBlur stdDeviation="0.25" result="effect1_foregroundBlur_2843_27"/>
</filter>
<filter id="filter3_i_2843_27" x="8.69238" y="7.59341" width="83.5166" height="82.4176" filterUnits="userSpaceOnUse" color-interpolation-filters="sRGB">
<feFlood flood-opacity="0" result="BackgroundImageFix"/>
<feBlend mode="normal" in="SourceGraphic" in2="BackgroundImageFix" result="shape"/>
<feColorMatrix in="SourceAlpha" type="matrix" values="0 0 0 0 0 0 0 0 0 0 0 0 0 0 0 0 0 0 127 0" result="hardAlpha"/>
<feOffset dy="3"/>
<feComposite in2="hardAlpha" operator="arithmetic" k2="-1" k3="1"/>
<feColorMatrix type="matrix" values="0 0 0 0 0.996078 0 0 0 0 0.603922 0 0 0 0 0.109804 0 0 0 1 0"/>
<feBlend mode="normal" in2="shape" result="effect1_innerShadow_2843_27"/>
</filter>
<filter id="filter4_f_2843_27" x="19.1814" y="12.5997" width="61.4395" height="14.1751" filterUnits="userSpaceOnUse" color-interpolation-filters="sRGB">
<feFlood flood-opacity="0" result="BackgroundImageFix"/>
<feBlend mode="normal" in="SourceGraphic" in2="BackgroundImageFix" result="shape"/>
<feGaussianBlur stdDeviation="0.25" result="effect1_foregroundBlur_2843_27"/>
</filter>
<filter id="filter5_i_2843_27" x="25.1758" y="28.4725" width="48.3516" height="45.0549" filterUnits="userSpaceOnUse" color-interpolation-filters="sRGB">
<feFlood flood-opacity="0" result="BackgroundImageFix"/>
<feBlend mode="normal" in="SourceGraphic" in2="BackgroundImageFix" result="shape"/>
<feColorMatrix in="SourceAlpha" type="matrix" values="0 0 0 0 0 0 0 0 0 0 0 0 0 0 0 0 0 0 127 0" result="hardAlpha"/>
<feOffset dy="0.5"/>
<feComposite in2="hardAlpha" operator="arithmetic" k2="-1" k3="1"/>
<feColorMatrix type="matrix" values="0 0 0 0 0 0 0 0 0 0 0 0 0 0 0 0 0 0 0.25 0"/>
<feBlend mode="normal" in2="shape" result="effect1_innerShadow_2843_27"/>
</filter>
<linearGradient id="paint0_linear_2843_27" x1="19.2179" y1="92.0474" x2="84.0484" y2="91.2048" gradientUnits="userSpaceOnUse">
<stop offset="0.075" stop-color="white" stop-opacity="0"/>
<stop offset="0.5" stop-color="white"/>
<stop offset="0.885" stop-color="white" stop-opacity="0"/>
</linearGradient>
<linearGradient id="paint1_linear_2843_27" x1="50.4506" y1="7.59341" x2="50.4506" y2="90.011" gradientUnits="userSpaceOnUse">
<stop stop-color="#FBE059"/>
<stop offset="0.82" stop-color="#FDBC2E"/>
</linearGradient>
<linearGradient id="paint2_linear_2843_27" x1="79.5284" y1="17.6526" x2="19.0919" y2="18.3855" gradientUnits="userSpaceOnUse">
<stop offset="0.075" stop-color="white" stop-opacity="0"/>
<stop offset="0.5" stop-color="white"/>
<stop offset="0.885" stop-color="white" stop-opacity="0"/>
</linearGradient>
</defs>
</svg>
